# xmcd CD database file
#
# Track frame offsets:
#	150
#	13140
#	13890
#	27372
#	29580
#	50497
#	54712
#	71190
#	73597
#	87260
#	89385
#	99847
#	101937
#	119840
#	124865
#	140332
#	143680
#	156457
#	157287
#	176507
#	178820
#	189670
#	201750
#	207072
#
# Disc length: 3521 seconds
#
# Revision: 0
# Processed by: cddbd v1.5.1PL0 Copyright (c) Steve Scherf et al.
# Submitted via: CDex 1.51
#
DISCID=6f0dbf18
DTITLE=Buddy Williams - Buddy Williams - The Happiest Days of my Life - CD2
DYEAR=1900
DGENRE=Country
TTITLE0=The Road Train Drivers Song
TTITLE1=Introduction
TTITLE2=The Camden Train
TTITLE3=Introduction
TTITLE4=Camooweal
TTITLE5=Introduction
TTITLE6=Wedding Bells
TTITLE7=Introduction
TTITLE8=Missing in Action
TTITLE9=Introduction
TTITLE10=The Overlander Trail
TTITLE11=Introduction
TTITLE12=Riding Down the Valley
TTITLE13=Introduction
TTITLE14=Where the white Faced Cattle Roam
TTITLE15=Introduction
TTITLE16=The Things that Matter Most
TTITLE17=Introduction
TTITLE18=I Like a Glass of Beer
TTITLE19=Introduction
TTITLE20=Take me Back to Tamworth
TTITLE21=Beyond the Setting Sun
TTITLE22=Closing Narration by Paul Hazell
TTITLE23=Interview with Bert Newton
EXTD=
EXTT0=
EXTT1=
EXTT2=
EXTT3=
EXTT4=
EXTT5=
EXTT6=
EXTT7=
EXTT8=
EXTT9=
EXTT10=
EXTT11=
EXTT12=
EXTT13=
EXTT14=
EXTT15=
EXTT16=
EXTT17=
EXTT18=
EXTT19=
EXTT20=
EXTT21=
EXTT22=
EXTT23=
PLAYORDER=
